<?xml version="1.0" standalone="no"?>
<!DOCTYPE svg PUBLIC "-//W3C//DTD SVG 1.1//EN" "http://www.w3.org/Graphics/SVG/1.1/DTD/svg11.dtd" >
<svg xmlns="http://www.w3.org/2000/svg">
<metadata>Generated by IcoMoon</metadata>
<defs>
<font id="icomoon" horiz-adv-x="1024">
<font-face units-per-em="1024" ascent="960" descent="-64" />
<missing-glyph horiz-adv-x="1024" />
<glyph unicode="&#x20;" horiz-adv-x="512" d="" />
<glyph unicode="&#xe900;" d="M186.143 726.191l59.312-665.267 266.16-73.889 266.898 73.996 59.377 665.16h-651.748z" />
<glyph unicode="&#xe901;" d="M511.976 590.191h-204.595l1.954-21.89 20.054-224.846h182.587v81.593h-107.967l-7.458 83.549h115.425v81.594zM420.749 237.583l-5.81 65.073h-81.906l11.432-128.112 167.135-46.397 0.375 0.107v84.89l-0.356-0.098-90.871 24.537z" />
<glyph unicode="&#xe902;" d="M512 671.786v-628.203l215.664 59.787 50.742 568.416h-266.406z" />
<glyph unicode="&#xe903;" d="M511.712 343.454h100.474l-9.47-105.818-91.004-24.561v-84.885l167.268 46.358 1.229 13.78 19.173 214.806 1.994 21.914h-189.664v-81.593zM511.712 590.191v-81.594h197.086l1.638 18.34 3.716 41.364 1.95 21.89h-204.39z" />
<glyph unicode="&#xe904;" d="M326.154 866.010h-37.93v40.966h-41.462v-124.056h41.464v41.542h37.928v-41.542h41.464v124.056h-41.466l0.002-40.966zM385.644 865.838h36.504v-82.918h41.466v82.918h36.522v41.138h-114.492v-41.138zM588.137 863.386l-26.6 43.59h-43.232v-124.056h40.57v61.49l28.545-44.11h0.712l28.526 44.11v-61.49h41.296v124.056h-43.252l-26.565-43.59zM720.067 823.926v83.050h-41.477v-124.056h99.791v41.006h-58.314z" />
<glyph unicode="&#xe905;" d="M876.066 35.552l-364.032-99.552-364.034 99.552-84 924.448h896.063l-83.997-924.448z" />
<glyph unicode="&#xe906;" d="M512 896v-887.998l295.424 87.742 78.59 800.256h-374.014z" />
<glyph unicode="&#xe907;" d="M779.62 768h-536.191l12.576-128h256l-248-95.68 11.808-128.317h348.257l-11.010-128-101.054-31.681-100.448 32.193-10.496 63.483h-119.36l14.688-159.583 215.616-64.093 215.294 64.127 31.715 351.871h-246.174l255.166 95.68 11.615 128z" />
<glyph unicode="&#xe908;" glyph-name="phone" d="M468.035 371.2c-8.192 0-16.384 3.135-22.624 9.375l-133.472 133.438c-6.016 6.016-9.376 14.144-9.376 22.624s3.36 16.64 9.376 22.624l77.888 77.856c24.32 24.32 24.32 63.904 0 88.224l-88.96 88.96c-23.584 23.552-64.672 23.584-88.256 0-1.408-1.408-2.976-2.688-4.64-3.84-3.68-2.56-92.992-66.432-78.336-198.336 1.952-17.568-10.688-33.376-28.256-35.328-17.408-2.016-33.376 10.688-35.328 28.256-17.728 159.296 84.768 242.784 103.264 256.448 47.904 45.952 129.632 45.184 176.768-1.92l88.96-88.96c49.28-49.28 49.28-129.44 0-178.72l-55.2-55.264 110.816-110.816c12.512-12.512 12.512-32.736 0-45.246-6.24-6.275-14.432-9.375-22.624-9.375zM312.351 215.478c-8.192 0-16.384 3.14-22.624 9.381-78.624 78.62-137.472 155.358-174.944 228.093-8.096 15.712-1.92 35.008 13.792 43.104 15.776 8.096 35.008 1.888 43.104-13.792 34.432-66.848 89.344-138.24 163.296-212.161 12.512-12.51 12.512-32.734 0-45.244-6.272-6.275-14.432-9.381-22.624-9.381zM703.761 0.569c-125.986 0-265.568 75.81-415.488 225.764-12.512 12.51-12.512 32.734 0 45.249 12.512 12.51 32.736 12.51 45.248 0 145.248-145.283 280.896-216.388 393.087-205.955 98.879 9.347 146.819 78.239 147.297 78.979 1.121 1.661 2.401 3.231 3.84 4.636 11.776 11.748 18.273 27.455 18.273 44.095s-6.497 32.324-18.273 44.1l-88.957 88.991c-11.776 11.776-27.46 18.239-44.163 18.239-16.674 0-32.319-6.463-44.066-18.239l-77.915-77.858c-12.516-12.51-32.74-12.51-45.249 0l-133.409 133.41c-12.512 12.51-12.512 32.734 0 45.247s32.736 12.512 45.248 0l110.785-110.783 55.262 55.233c23.842 23.869 55.552 37.021 89.344 37.021s65.536-13.152 89.407-36.993l88.963-89.025c23.871-23.836 37.023-55.58 37.023-89.344 0-32.831-12.447-63.772-35.106-87.387-11.645-15.747-74.462-92.9-192.284-104.033-9.506-0.927-19.172-1.348-28.865-1.348z" />
<glyph unicode="&#xe909;" horiz-adv-x="1265" d="M626.772-9.842c-4.048 0-8.078 1.277-11.619 3.747l-37.006 26.365c-5.523 3.723-2.824 5.042-1.004 5.807 7.371 3.078 8.863 3.789 16.73 9.162 0.818 0.554 1.906 0.343 2.752-0.253l28.424-20.323c1.030-0.693 2.488-0.693 3.433 0l110.821 77.023c1.030 0.711 1.693 2.138 1.693 3.608v154.010c0 1.506-0.663 2.915-1.723 3.68l-110.773 76.957c-1.018 0.723-2.385 0.723-3.415 0l-110.746-76.981c-1.076-0.741-1.759-2.193-1.759-3.656v-154.010c0-1.47 0.68-2.867 1.748-3.566l30.359-21.118c16.472-9.921 26.555 1.759 26.555 13.499v152.058c0 2.15 1.437 3.843 3.221 3.843h14.053c1.759 0 3.212-1.693 3.212-3.843v-152.058c0-26.473-11.973-41.659-32.814-41.659-6.405 0-11.448 0-25.526 8.355l-29.061 20.149c-7.176 4.994-11.623 14.342-11.623 24.341v154.010c0 10.005 4.444 19.348 11.623 24.323l110.824 77.113c7.011 4.783 16.33 4.783 23.287 0l110.815-77.113c7.174-5 11.637-14.318 11.637-24.323v-154.010c0-9.999-4.463-19.311-11.637-24.341l-110.815-77.053c-3.542-2.464-7.56-3.741-11.668-3.741z" />
<glyph unicode="&#xe90a;" horiz-adv-x="1265" d="M661.004 96.268c-48.495 0-58.651 26.805-58.651 49.291 0 2.138 1.428 3.843 3.205 3.843h14.33c1.596 0 2.933-1.385 3.18-3.271 2.162-17.559 8.614-26.425 37.942-26.425 23.347 0 33.286 6.361 33.286 21.275 0 8.596-2.819 14.981-39.099 19.257-30.322 3.614-49.080 11.68-49.080 40.894 0 26.925 18.848 42.984 50.453 42.984 35.497 0 53.067-14.836 55.29-46.67 0.084-1.096-0.235-2.15-0.843-2.97-0.608-0.765-1.458-1.229-2.349-1.229h-14.384c-1.488 0-2.807 1.271-3.108 3.012-3.451 18.48-11.842 24.389-34.605 24.389-25.492 0-28.455-10.692-28.455-18.703 0-9.71 3.5-12.535 37.912-18.022 34.057-5.415 50.236-13.095 50.236-41.918-0.006-29.082-20.143-45.737-55.26-45.737z" />
<glyph unicode="&#xe90b;" horiz-adv-x="1265" d="M820.832 257.777c0-14.155-9.608-25.72-21.359-25.72-11.643 0-21.353 11.433-21.353 25.72 0 14.559 9.945 25.72 21.353 25.72 11.529 0 21.359-11.162 21.359-25.72zM781.565 257.849c0-11.981 8.023-21.643 17.854-21.643 9.945 0 17.968 9.867 17.968 21.643 0 11.969-8.132 21.498-17.968 21.498-9.722 0-17.854-9.385-17.854-21.498zM791.45 272.203h8.252c2.825 0 8.367 0 8.367-7.626 0-5.307-2.825-6.391-4.53-7.072 3.289-0.277 3.512-2.861 3.957-6.536 0.229-2.313 0.572-6.258 1.241-7.62h-5.078c-0.12 1.355-0.91 8.71-0.91 9.114-0.331 1.638-0.789 2.446-2.482 2.446h-4.18v-11.559h-4.638v28.853zM795.979 259.548h3.723c3.048 0 3.62 2.584 3.62 4.078 0 3.951-2.265 3.951-3.512 3.951h-3.831v-8.029z" />
<glyph unicode="&#xe90c;" horiz-adv-x="1265" d="M283.593 592.71c0 6.149-2.688 11.802-7.096 14.848l-117.493 81.425c-1.986 1.406-4.213 2.138-6.469 2.252-0.203 0-1.049 0-1.216 0-2.244-0.11-4.471-0.842-6.488-2.252l-117.493-81.425c-4.38-3.046-7.104-8.699-7.104-14.848l0.258-219.255c0-3.047 1.315-5.886 3.542-7.379 2.18-1.573 4.877-1.573 7.049 0l69.827 48.15c4.416 3.157 7.104 8.732 7.104 14.825v102.437c0 6.107 2.685 11.759 7.085 14.792l29.732 20.621c2.216 1.54 4.638 2.295 7.113 2.295 2.418 0 4.904-0.755 7.057-2.295l29.724-20.621c4.4-3.036 7.096-8.689 7.096-14.792v-102.437c0-6.093 2.724-11.702 7.113-14.825l69.807-48.15c2.189-1.573 4.924-1.573 7.096 0 2.164 1.497 3.526 4.333 3.526 7.379l0.23 219.255z" />
<glyph unicode="&#xe90d;" horiz-adv-x="1265" d="M848.956 894.125c-2.199 1.473-4.879 1.44-7.054-0.094-2.168-1.537-3.5-4.339-3.5-7.369v-217.133c0-2.135-0.952-4.112-2.482-5.181-1.536-1.069-3.427-1.069-4.969 0l-29.425 20.417c-4.391 3.047-9.794 3.040-14.185-0.007l-117.537-81.686c-4.391-3.053-7.096-8.695-7.096-14.798v-163.404c0-6.107 2.705-11.745 7.096-14.805l117.531-81.746c4.397-3.054 9.806-3.054 14.197 0l117.549 81.746c4.391 3.056 7.096 8.699 7.096 14.805v407.329c0 6.193-2.783 11.909-7.276 14.929l-69.945 46.998zM838.054 478.558c0-1.523-0.681-2.936-1.777-3.694l-40.358-28.014c-1.096-0.758-2.446-0.758-3.542 0l-40.352 28.014c-1.102 0.758-1.777 2.171-1.777 3.694v56.118c0 1.523 0.675 2.936 1.771 3.701l40.358 28.071c1.096 0.765 2.452 0.765 3.548 0l40.358-28.071c1.096-0.764 1.771-2.178 1.771-3.701v-56.118z" />
<glyph unicode="&#xe90e;" horiz-adv-x="1265" d="M1240.365 536.142c4.373 3.056 7.066 8.688 7.066 14.778v39.599c0 6.090-2.693 11.725-7.072 14.782l-116.778 81.652c-4.397 3.077-9.824 3.080-14.228 0.023l-117.495-81.686c-4.391-3.053-7.096-8.692-7.096-14.798v-163.361c0-6.143 2.741-11.812 7.168-14.849l116.766-80.121c4.307-2.964 9.583-2.994 13.92-0.096l70.626 47.273c2.241 1.5 3.632 4.333 3.644 7.413 0.024 3.080-1.343 5.933-3.56 7.47l-118.242 81.725c-2.211 1.523-3.566 4.356-3.566 7.416v51.196c0 3.053 1.355 5.88 3.554 7.403l36.798 25.548c2.187 1.523 4.897 1.523 7.084 0l36.822-25.548c2.199-1.523 3.548-4.35 3.548-7.403v-40.28c0-3.060 1.361-5.886 3.56-7.409 2.199-1.53 4.909-1.517 7.102 0.016l70.379 49.256z" />
<glyph unicode="&#xe90f;" horiz-adv-x="1265" d="M1114.72 543.795c0.843 0.588 1.879 0.588 2.723 0l22.558-15.667c0.843-0.588 1.361-1.667 1.361-2.843v-31.36c0-1.176-0.518-2.255-1.361-2.843l-22.558-15.667c-0.843-0.588-1.879-0.588-2.723 0l-22.534 15.667c-0.843 0.588-1.361 1.667-1.361 2.843v31.36c0 1.176 0.518 2.255 1.361 2.843l22.534 15.667z" />
<glyph unicode="&#xe910;" horiz-adv-x="1265" d="M480.23 686.134c-4.366 3.036-9.748 3.036-14.111 0l-116.88-81.221c-4.371-3.036-7.063-8.645-7.063-14.725v-162.57c0-6.073 2.691-11.682 7.057-14.725l116.879-81.286c4.369-3.036 9.751-3.036 14.123 0l116.852 81.286c4.366 3.040 7.055 8.652 7.055 14.725v162.576c0 6.073-2.691 11.681-7.060 14.718l-116.852 81.221z" />
<glyph unicode="&#xe911;" horiz-adv-x="1265" d="M597.296 604.933l-117.206 81.221c-1.157 0.805-2.394 1.379-3.667 1.757l-131.598-271.090c1.134-1.537 2.463-2.876 3.939-3.905l117.404-81.286c3.326-2.313 7.279-2.855 10.904-1.644l123.368 272.037c-0.937 1.116-1.989 2.108-3.143 2.909z" />
<glyph unicode="&#xe912;" horiz-adv-x="1265" d="M597.338 412.896c3.406 2.371 5.949 6.317 6.913 10.816l-128.486 264.328c-3.354 0.805-6.913 0.194-9.933-1.907l-116.419-80.734 125.765-275.907c1.795 0.295 3.553 0.994 5.162 2.114l116.999 81.289z" />
<glyph unicode="&#xe913;" horiz-adv-x="1265" d="M597.338 412.889l-116.999-81.288c-1.609-1.12-3.368-1.819-5.163-2.114l2.331-5.108 129.954 90.585v2.134l-3.211 6.608c-0.964-4.5-3.506-8.441-6.913-10.816z" />
<glyph unicode="&#xe914;" horiz-adv-x="1265" d="M597.338 412.889l-116.999-81.288c-1.609-1.12-3.368-1.819-5.163-2.114l2.331-5.108 129.954 90.585v2.134l-3.211 6.608c-0.964-4.5-3.506-8.441-6.913-10.816z" />
<glyph unicode="&#xe915;" glyph-name="trello" d="M128 960h768c70.656 0 128-57.312 128-128v-768c0-70.656-57.31-128-128-128h-768c-70.656 0-128 57.31-128 128v768c0 70.656 57.312 128 128 128zM576 768v-320c0-35.362 28.638-64 64-64h192c35.362 0 64 28.638 64 64v320c0 35.36-28.638 64-64 64h-192c-35.362 0-64-28.64-64-64zM128 768v-576c0-35.362 28.64-64 64-64h192c35.36 0 64 28.638 64 64v576c0 35.36-28.64 64-64 64h-192c-35.36 0-64-28.64-64-64z" />
<glyph unicode="&#xe916;" glyph-name="computer" d="M928 688.001h-160v60.32l-43.952 11.647c-3.168 9.424-6.912 18.528-11.168 27.2l22.784 39.232-85.281 85.296-39.215-22.8c-8.704 4.272-17.793 8-27.199 11.184l-11.649 43.92h-120.639l-11.649-43.952c-9.406-3.168-18.495-6.912-27.199-11.184l-39.215 22.8-85.281-85.296 22.784-39.232c-4.272-8.672-7.999-17.776-11.168-27.2l-43.952-11.615v-60.32h-160c-44.112 0-80-35.889-80-80.001v-480c0-44.112 35.888-79.999 80-79.999h208.001v-64h-64v-32.002h543.998v32.002h-64v64h208.001c44.112 0 80.001 35.887 80.001 79.999v480c0 44.112-35.889 80.001-80.001 80.001zM288 723.679l37.343 9.888 2.546 8.641c3.951 13.392 9.167 26.080 15.536 37.697l4.319 7.92-19.36 33.328 50.463 50.464 33.313-19.36 7.92 4.336c11.663 6.368 24.336 11.584 37.681 15.504l8.638 2.544 9.921 37.36h71.377l9.904-37.36 8.638-2.544c13.345-3.92 26.032-9.136 37.681-15.504l7.92-4.336 33.313 19.36 50.463-50.464-19.36-33.328 4.321-7.92c6.351-11.632 11.583-24.32 15.534-37.697l2.546-8.641 37.343-9.888v-71.375l-37.343-9.888-2.546-8.641c-3.951-13.392-9.167-26.079-15.534-37.695l-4.321-7.92 19.36-33.329-39.617-39.617v60.785c0 11.919-1.616 23.439-4.35 34.527 13.136 23.648 20.351 50.192 20.351 77.474 0 88.223-71.776 159.999-160 159.999s-160-71.776-160-159.999c0-27.265 7.215-53.793 20.367-77.474-2.75-11.088-4.366-22.608-4.366-34.527v-60.785l-39.633 39.633 19.36 33.327-4.319 7.922c-6.353 11.631-11.586 24.318-15.536 37.695l-2.544 8.641-37.329 9.888v71.358zM416 484.448c-9.519 5.552-16.001 15.759-16.001 27.552s6.482 22 16.001 27.552v-55.103zM384 688.001c0 70.575 57.424 127.999 128 127.999s128-57.424 128-127.999c0-12.546-1.935-24.881-5.472-36.721-25.377 41.153-70.736 68.719-122.528 68.719s-97.137-27.566-122.511-68.719c-3.553 11.856-5.489 24.191-5.489 36.721zM591.999 576h-2.75c-24.912 0-48.337 9.695-65.937 27.312l-11.311 11.327-11.311-11.327c-17.617-17.617-41.026-27.312-65.937-27.312h-2.75c-11.713 0-22.544-3.391-32.002-8.897v8.897c0 61.759 50.258 112.001 112.001 112.001s112.001-50.242 112.001-112.001v-8.897c-9.458 5.505-20.29 8.897-32.002 8.897zM544 389.329l-32-42.658-32 42.658v0.27c10.031-3.568 20.769-5.599 32-5.599s21.969 2.048 32 5.599v-0.27zM458.4 364.8l31.199-41.601-33.44-25.072-19.519 58.528 21.76 8.145zM406.671 345.407l33.169-99.535 72.159 54.127 72.159-54.112 33.169 99.537 23.519-8.817c18.641-6.992 31.152-25.055 31.152-44.96v-51.646h-320v51.646c0 19.905 12.511 37.968 31.152 44.96l23.519 8.8zM567.841 298.127l-33.44 25.072 31.199 41.601 21.76-8.159-19.519-58.513zM512 416c-35.295 0-64 28.705-64 64v65.087c23.423 2.464 45.521 11.008 64 25.537 18.479-14.545 40.577-23.073 64-25.537v-65.087c0-35.295-28.705-64-64-64zM608 539.552c9.519-5.552 16.001-15.759 16.001-27.552s-6.482-22-16.001-27.552v55.103zM96 655.999h160v-28.32l43.952-11.647c3.168-9.425 6.912-18.528 11.168-27.199l-22.784-39.234 85.281-85.295 10.24 5.951c9.486-10.945 22.462-18.639 37.343-21.185 5.36-15.696 14.688-29.551 26.8-40.432v-13.552l-76.095-28.529c-31.042-11.647-51.905-41.759-51.905-74.912v-83.649h384v83.649c0 33.153-20.863 63.265-51.905 74.928l-76.095 28.512v13.552c12.112 10.865 21.441 24.721 26.8 40.448 14.864 2.544 27.841 10.256 37.329 21.185l10.238-5.951 85.281 85.295-22.784 39.231c4.272 8.673 7.999 17.777 11.168 27.202l43.969 11.631v28.32h160c26.464 0 47.999-21.535 47.999-47.999v-431.999h-927.999v431.999c0 26.464 21.536 47.999 48 47.999zM688.001-15.999h-352.002v64h352.002v-64zM928 79.999h-832c-26.464 0-48 21.537-48 48.001v15.999h927.999v-15.999c0-26.464-21.535-48.001-47.999-48.001z" />
<glyph unicode="&#xe917;" glyph-name="message" d="M931.424 309.039l-55.233 18.418c68.688 13.808 107.313 42.16 109.408 43.743l19.024 14.289-20.4 12.239c-44.544 26.72-72.225 75.616-72.225 127.568v178.704c0 132.336-107.663 240-239.999 240-69.569 0-132.129-29.936-175.999-77.376v29.376c0 26.464-21.537 48-48.001 48h-384c-26.464 0-48-21.536-48-48v-192c0-26.464 21.536-48.001 48-48.001h90.672l149.329-111.999v111.999h128v-130.703c0-30.88-9.97-60.559-27.249-85.264l-49.089 49.072-41.073-24.351c-0.782 0.336-1.567 0.655-2.335 0.975l-11.825 46.273h-120.863l-11.808-46.289c-0.784-0.319-1.568-0.639-2.336-0.975l-41.072 24.353-85.456-85.441 24.368-41.073c-0.336-0.784-0.656-1.569-0.976-2.337l-46.288-11.823v-120.848l46.288-11.823c0.32-0.784 0.64-1.569 0.976-2.337l-24.384-41.073 85.456-85.438 41.072 24.351c0.784-0.336 1.568-0.655 2.336-0.975l11.824-46.273h120.863l11.809 46.289c0.784 0.319 1.569 0.639 2.337 0.975l21.422-12.72v-146.545h672.002v250.817c0 48.273-30.769 90.976-76.577 106.224zM800 288c0-35.295-28.705-64-64-64-16.417 0-31.791 6.257-43.583 17.441l65.712 91.648 31.472-10.496c6.703-10.32 10.4-22.145 10.4-34.593zM672 267.889l-64 89.248v23.071c19.872-7.774 41.409-12.206 64-12.206s44.128 4.432 64 12.222v-23.071l-64-89.264zM554.383 322.593l31.488 10.496 65.712-91.648c-11.792-11.184-27.167-17.441-43.583-17.441-35.295 0-64 28.705-64 64 0 12.448 3.697 24.273 10.383 34.593zM527.999 640h28.113c42.895 0 83.489 14.911 115.888 42.287 32.383-27.376 72.993-42.287 115.888-42.287h28.113v-96c0-79.407-64.608-144.001-144.001-144.001s-144.001 64.594-144.001 144.001v96zM946.608 385.167c-25.647-13.119-75.424-32.639-144.257-33.087l-34.351 11.457v33.151c35.361 23.12 61.823 58.608 73.425 100.272 14.719 1.761 28.111 7.393 39.279 16.032 3.457-49.84 27.458-96.383 65.905-127.824zM847.327 530.735c0.336 4.401 0.672 8.786 0.672 13.265v77.056c18.577-6.623 32.002-24.224 32.002-45.056 0-21.072-13.744-38.832-32.674-45.265zM672 912c114.688 0 208.001-93.312 208.001-208v-64.416c-9.345 7.072-20.113 12.368-32.002 14.785v49.631h-31.998v-32h-28.113c-39.504 0-76.64 15.376-104.577 43.311l-11.311 11.313-11.311-11.313c-27.937-27.935-65.073-43.311-104.577-43.311h-28.113v32h-31.998v-49.617c-11.889-2.431-22.657-7.711-32.002-14.782v64.399c0 114.688 93.313 208 208.001 208zM271.999 688.001v-80.001l-106.671 80.001h-101.328c-8.816 0-16 7.168-16 15.999v192c0 8.832 7.184 16 16 16h384c8.817 0 15.999-7.168 15.999-16v-72.768c-20.238-35.168-31.998-75.808-31.998-119.232v-15.999h-160.002zM496.001 621.056v-77.056c0-4.479 0.336-8.864 0.672-13.265-18.93 6.433-32.674 24.193-32.674 45.265 0 20.832 13.425 38.433 32.002 45.056zM463.297 512.991c11.168-8.655 24.56-14.27 39.279-16.032 11.586-41.679 38.064-77.152 73.425-100.272v-33.151l-34.337-11.457c-68.831 0.449-118.624 19.968-144.271 33.087 38.447 31.441 62.448 77.984 65.905 127.824zM316.416 147.376l-7.713-3.68c-4.944-2.351-10.015-4.479-15.231-6.32l-8.065-2.847-9.839-38.529h-71.137l-9.824 38.529-8.064 2.847c-5.216 1.825-10.288 3.953-15.232 6.32l-7.712 3.68-34.208-20.304-50.304 50.319 20.288 34.191-3.68 7.696c-2.368 4.977-4.48 10.064-6.336 15.28l-2.848 8.032-38.512 9.824v71.152l38.496 9.824 2.848 8.049c1.856 5.216 3.968 10.303 6.336 15.264l3.68 7.696-20.288 34.191 50.304 50.319 34.208-20.304 7.712 3.68c4.944 2.353 10.016 4.481 15.232 6.32l8.064 2.849 9.84 38.543h71.137l9.824-38.529 8.063-2.847c5.216-1.825 10.287-3.953 15.233-6.32l7.711-3.68 34.208 20.304 32.977-32.975c-7.328-6.752-15.137-13.009-23.824-18.225l-20.4-12.239 19.040-14.289c2.111-1.583 40.737-29.919 109.425-43.743l-55.233-18.418c-17.488-5.822-32.721-15.679-44.96-28.287 0.143 2.417 0.369 4.801 0.369 7.248 0 70.576-57.426 128-128 128-70.577 0-128.001-57.424-128.001-128s57.424-128 128.001-128c38.271 0 72.591 16.976 96.063 43.696 0-0.305-0.066-0.592-0.066-0.881v-67.056l-19.583 11.616zM335.999 288c0-52.945-43.055-96-95.998-96-52.945 0-96.001 43.055-96.001 96s43.056 96 96.001 96c52.943 0 95.998-43.055 95.998-96zM975.999-15.999h-95.998v25.631c20.687 23.009 31.998 52.433 31.998 83.632v5.505c0 31.183-11.311 60.623-31.998 83.63v41.601h-32.002v-54.624l4.69-4.688c17.615-17.617 27.312-41.023 27.312-65.935v-5.505c0-24.912-9.697-48.335-27.312-65.935l-4.69-4.688v-38.623h-351.998v38.623l-4.69 4.688c-17.615 17.617-27.312 41.023-27.312 65.935v5.505c0 24.912 9.697 48.335 27.312 65.935l4.69 4.688v54.624h-32.002v-41.632c-20.687-23.009-31.998-52.433-31.998-83.632v-5.505c0-31.183 11.311-60.623 31.998-83.63v-25.6h-95.998v218.814c0 34.48 21.983 64.993 54.702 75.889l91.97 30.657c-1.585-6.961-2.673-14.064-2.673-21.361 0-52.945 43.055-96 96-96 24.064 0 46.512 8.976 64 24.912 17.488-15.935 39.936-24.912 64-24.912 52.945 0 96 43.055 96 96 0 7.297-1.087 14.399-2.673 21.361l91.984-30.657c32.705-10.912 54.688-41.409 54.688-75.889v-218.814zM591.999 576c8.837 0 16.001 7.164 16.001 15.999 0 8.837-7.164 16.001-16.001 16.001-8.835 0-15.999-7.164-15.999-16.001 0-8.835 7.164-15.999 15.999-15.999zM752.001 576c8.835 0 15.999 7.164 15.999 15.999 0 8.837-7.164 16.001-15.999 16.001-8.837 0-16.001-7.164-16.001-16.001 0-8.835 7.164-15.999 16.001-15.999zM672 448c35.295 0 64 28.705 64 64h-32c0-17.648-14.352-32-32-32s-32 14.352-32 32h-32c0-35.295 28.705-64 64-64zM399.999 880h-319.999v-32h319.999v32zM399.999 816h-319.999v-32h319.999v32zM288 752.001h-32v-32.002h32v32.002zM384 752.001h-32v-32.002h32v32.002zM192 752.001h-32v-32.002h32v32.002z" />
<glyph unicode="&#xe918;" horiz-adv-x="1885" d="M232.727 960h1419.636c128.532 0 232.727-104.196 232.727-232.727v-558.545c0-128.532-104.196-232.727-232.727-232.727h-1419.636c-128.532 0-232.727 104.196-232.727 232.727v558.545c0 128.532 104.196 232.727 232.727 232.727z" />
<glyph unicode="&#xe919;" horiz-adv-x="1885" d="M806.507 648.511l-71.461-431.111h114.332l71.473 431.111h-114.344zM638.85 648.511l-109.009-296.513-12.895 63.849 0.009-0.021-2.842 14.31c-13.193 27.911-43.748 80.957-101.443 126.227-17.057 13.382-34.253 24.802-50.874 34.555l99.072-373.518h119.126l181.914 431.111h-123.057zM1085.072 528.826c0 48.74 111.351 42.477 160.279 16.012l16.314 92.591c0 0-50.353 18.8-102.838 18.8-56.744 0-191.483-24.36-191.483-142.718 0-111.388 158.143-112.773 158.143-171.252 0-58.482-141.838-48.030-188.646-11.141l-17.012-96.78c0 0 51.051-24.357 129.073-24.357 78.013 0 195.738 39.673 195.738 147.591 0 112.086-159.567 122.526-159.567 171.255zM1551.637 648.511h-91.927c-42.447 0-52.785-32.128-52.785-32.128l-170.508-398.983h119.17l23.841 64.033h145.352l13.41-64.033h104.983l-91.536 431.111zM1412.378 369.901l60.079 161.331 33.799-161.331h-93.878z" />
<glyph unicode="&#xe91a;" horiz-adv-x="1885" d="M480.033 607.886c0 0-4.731 38.91-55.256 38.91h-183.559l-2.148-7.312c0 0 88.232-17.657 172.881-83.805 80.891-63.223 107.28-142.031 107.28-142.031l-39.198 194.239z" />
<glyph unicode="&#xe91b;" horiz-adv-x="1885" d="M232.727 960h1419.636c128.532 0 232.727-104.196 232.727-232.727v-558.545c0-128.532-104.196-232.727-232.727-232.727h-1419.636c-128.532 0-232.727 104.196-232.727 232.727v558.545c0 128.532 104.196 232.727 232.727 232.727z" />
<glyph unicode="&#xe91c;" horiz-adv-x="1885" d="M837.816 229.818h-116.364c-18.618 0-37.236 8.727-48.873 21.818s-16.291 30.545-11.636 48l100.073 410.182c6.982 26.182 30.255 43.636 60.509 43.636h200.145c53.527 0 102.4-21.818 137.309-61.091 32.582-39.273 46.545-89.453 34.909-139.636-18.618-87.273-102.4-148.364-197.818-148.364h-74.473c-11.636 0-23.273-8.727-25.6-19.635l-34.909-137.456c-2.327-10.91-11.636-17.455-23.273-17.455z" />
<glyph unicode="&#xe91d;" horiz-adv-x="1885" d="M837.816 229.818h-116.364c-18.618 0-37.236 8.727-48.873 21.818s-16.291 30.545-11.636 48l100.073 410.182c6.982 26.182 30.255 43.636 60.509 43.636h200.145c53.527 0 102.4-21.818 137.309-61.091 32.582-39.273 46.545-89.453 34.909-139.636-18.618-87.273-102.4-148.364-197.818-148.364h-74.473c-11.636 0-23.273-8.727-25.6-19.635l-34.909-137.456c-2.327-10.91-11.636-17.455-23.273-17.455z" />
<glyph unicode="&#xe91e;" horiz-adv-x="1885" d="M1240.436 550.544c0-2.181 0-4.364 0-6.544-23.273-106.91-125.673-183.273-242.036-183.273h-58.182l-32.582-124.365c-9.309-30.545-37.236-50.181-69.818-50.181h-46.545c2.327-8.727 4.655-15.274 11.636-21.818 11.636-13.091 27.927-19.635 46.545-19.635h104.727c11.636 0 20.945 6.544 23.273 15.272l32.582 119.999c2.327 8.727 11.636 13.091 20.945 13.091h67.491c86.109 0 162.909 54.547 179.2 130.909 9.309 45.819-4.655 93.819-37.236 126.545z" />
<glyph unicode="&#xe91f;" horiz-adv-x="1885" d="M232.727 960h1419.636c128.532 0 232.727-104.196 232.727-232.727v-558.545c0-128.532-104.196-232.727-232.727-232.727h-1419.636c-128.532 0-232.727 104.196-232.727 232.727v558.545c0 128.532 104.196 232.727 232.727 232.727z" />
<glyph unicode="&#xe920;" horiz-adv-x="1885" d="M1412.177 442.191c0-156.947-125.238-285.219-281.782-285.219-155.055 0-281.782 128.272-281.782 285.219 0 156.944 125.235 285.218 280.29 285.218 158.036 0 283.273-128.274 283.273-285.218z" />
<glyph unicode="&#xe921;" horiz-adv-x="1885" d="M1130.396 727.409c155.055 0 281.782-128.274 281.782-285.218 0-156.947-125.238-285.219-281.782-285.219-155.055 0-281.782 128.272-281.782 285.219z" />
<glyph unicode="&#xe922;" horiz-adv-x="1885" d="M1130.41 727.409c155.055 0 281.782-128.274 281.782-285.218 0-156.947-125.238-285.219-281.782-285.219z" />
<glyph unicode="&#xe923;" horiz-adv-x="1885" d="M751.709 727.409c-153.563-1.509-278.8-128.274-278.8-285.218 0-156.947 125.238-285.219 281.782-285.219 73.055 0 138.654 28.674 189.347 73.947 10.435 9.053 19.382 19.617 28.325 30.18h-58.145c-7.454 9.055-14.909 19.619-20.873 28.674h99.891c5.965 9.053 11.927 19.617 16.4 30.18h-132.692c-4.471 9.055-8.944 19.619-11.927 30.182h155.055c8.946 28.674 14.911 58.854 14.911 90.545 0 21.129-2.984 40.746-5.965 60.365h-172.944c1.489 10.563 4.473 19.619 7.454 30.182h155.055c-2.981 10.563-7.454 21.127-11.927 30.18h-131.2c4.473 10.566 10.435 19.619 16.4 30.182h99.891c-5.965 10.563-13.419 21.127-22.365 30.182h-55.163c8.946 10.563 17.892 19.619 28.328 28.672-49.201 46.783-116.291 73.947-189.345 73.947 0 3.018 0 3.018-1.492 3.018z" />
<glyph unicode="&#xe924;" horiz-adv-x="1885" d="M472.909 442.186c0-156.947 125.238-285.219 281.782-285.219 73.055 0 138.654 28.674 189.347 73.947 10.435 9.053 19.382 19.617 28.325 30.18h-58.145c-7.454 9.055-14.909 19.619-20.873 28.674h99.891c5.965 9.053 11.927 19.617 16.4 30.182h-132.692c-4.471 9.053-8.944 19.617-11.927 30.18h155.055c8.946 28.674 14.911 58.854 14.911 90.547 0 21.127-2.984 40.744-5.965 60.362h-172.944c1.489 10.563 4.473 19.619 7.454 30.182h155.055c-2.981 10.563-7.454 21.127-11.927 30.182h-131.2c4.473 10.563 10.435 19.617 16.4 30.18h99.891c-5.965 10.563-13.419 21.127-22.365 30.182h-55.163c8.946 10.563 17.892 19.619 28.328 28.672-49.201 46.783-116.291 73.947-189.345 73.947h-1.492z" />
<glyph unicode="&#xe925;" horiz-adv-x="1885" d="M754.686 156.968c73.055 0 138.654 28.674 189.347 73.947 10.435 9.053 19.382 19.617 28.328 30.18h-58.147c-7.454 9.055-14.909 19.619-20.873 28.674h99.891c5.965 9.053 11.927 19.617 16.4 30.182h-132.689c-4.473 9.053-8.946 19.617-11.927 30.18h155.055c8.944 28.674 14.909 58.854 14.909 90.547 0 21.127-2.981 40.744-5.965 60.362h-172.944c1.489 10.563 4.473 19.619 7.454 30.182h155.055c-2.981 10.563-7.454 21.127-11.927 30.182h-131.2c4.473 10.563 10.435 19.617 16.4 30.18h99.891c-5.965 10.563-13.419 21.127-22.365 30.182h-55.163c8.946 10.563 17.892 19.619 28.328 28.672-49.201 46.783-116.291 73.947-189.345 73.947h-1.492z" />
<glyph unicode="&#xe926;" horiz-adv-x="1885" d="M854.577 369.745l4.473 25.654c-1.492 0-4.473-1.508-7.454-1.508-10.435 0-11.927 6.037-10.435 9.055l8.944 52.817h16.4l4.473 28.672h-14.909l2.981 18.111h-29.817c0 0-17.892-99.6-17.892-111.674 0-18.109 10.435-25.654 23.855-25.654 8.946 0 16.4 3.018 19.382 4.527z" />
<glyph unicode="&#xe927;" horiz-adv-x="1885" d="M865.022 418.036c0-42.254 28.328-52.817 52.182-52.817 22.365 0 31.309 4.527 31.309 4.527l5.965 28.672c0 0-16.4-7.545-31.309-7.545-32.801 0-26.836 24.145-26.836 24.145h61.126c0 0 4.473 19.619 4.473 27.164 0 19.619-10.435 43.764-43.236 43.764-31.309 3.018-53.674-30.182-53.674-67.91zM917.204 461.801c16.4 0 13.419-19.619 13.419-21.127h-32.801c0 1.508 2.981 21.127 19.382 21.127z" />
<glyph unicode="&#xe928;" horiz-adv-x="1885" d="M1106.546 369.755l5.962 33.201c0 0-14.909-7.547-25.344-7.547-20.873 0-29.819 16.6-29.819 34.709 0 36.219 17.892 55.838 38.763 55.838 14.911 0 26.838-9.055 26.838-9.055l4.473 31.69c0 0-17.892 7.545-34.292 7.545-34.29 0-68.582-30.18-68.582-87.526 0-37.727 17.892-63.381 53.674-63.381 11.927 0 28.328 4.527 28.328 4.527z" />
<glyph unicode="&#xe929;" horiz-adv-x="1885" d="M690.586 488.976c-20.871 0-35.782-6.035-35.782-6.035l-4.473-25.656c0 0 13.419 6.037 32.801 6.037 10.438 0 19.382-1.508 19.382-10.563 0-6.037-1.489-7.545-1.489-7.545s-8.946 0-13.419 0c-25.346 0-53.672-10.563-53.672-45.272 0-27.164 17.89-33.201 28.325-33.201 20.873 0 29.819 13.582 31.311 13.582l-1.492-12.074h26.836l11.927 83c0 36.219-29.817 37.727-40.255 37.727zM696.55 421.069c0-4.529-2.981-28.674-20.873-28.674-8.946 0-11.927 7.547-11.927 12.074 0 7.545 4.473 18.109 26.836 18.109 4.473-1.508 5.965-1.508 5.965-1.508z" />
<glyph unicode="&#xe92a;" horiz-adv-x="1885" d="M759.177 366.732c7.454 0 44.728-1.508 44.728 39.235 0 37.727-35.782 30.182-35.782 45.275 0 7.545 5.962 10.563 16.4 10.563 4.471 0 20.871-1.51 20.871-1.51l4.473 27.164c0 0-10.435 3.018-28.328 3.018-22.363 0-44.726-9.055-44.726-39.235 0-34.709 37.271-31.693 37.271-45.275 0-9.053-10.435-10.563-17.89-10.563-13.419 0-26.838 4.529-26.838 4.529l-4.471-27.164c1.489-3.018 8.944-6.037 34.29-6.037z" />
<glyph unicode="&#xe92b;" horiz-adv-x="1885" d="M1354.049 513.115l-5.962-40.746c0 0-11.927 15.090-28.328 15.090-26.836 0-50.69-33.201-50.69-72.436 0-24.145 11.927-49.799 37.271-49.799 17.892 0 28.328 12.072 28.328 12.072l-1.489-10.563h29.817l22.363 144.873-31.309 1.51zM1340.632 433.131c0-16.598-7.454-37.727-23.855-37.727-10.438 0-16.4 9.055-16.4 24.145 0 24.145 10.435 39.238 23.855 39.238 10.435 0 16.4-7.545 16.4-25.656z" />
<glyph unicode="&#xe92c;" horiz-adv-x="1885" d="M528.077 368.242l17.892 108.653 2.981-108.653h20.873l38.763 108.653-16.4-108.653h31.309l23.855 144.873h-49.199l-29.819-89.037-1.492 89.037h-43.236l-23.855-144.873h28.328z" />
<glyph unicode="&#xe92d;" horiz-adv-x="1885" d="M990.255 368.244c8.946 49.801 10.435 90.547 31.309 83.002 2.981 19.617 7.454 27.162 10.438 34.709 0 0-1.492 0-5.965 0-13.419 0-23.855-18.111-23.855-18.111l2.981 16.6h-28.328l-19.382-117.709h32.801v1.508z" />
<glyph unicode="&#xe92e;" horiz-adv-x="1885" d="M1175.131 488.976c-20.871 0-35.782-6.035-35.782-6.035l-4.471-25.656c0 0 13.417 6.037 32.798 6.037 10.438 0 19.382-1.508 19.382-10.563 0-6.037-1.489-7.545-1.489-7.545s-8.946 0-13.419 0c-25.344 0-53.672-10.563-53.672-45.272 0-27.164 17.89-33.201 28.328-33.201 20.871 0 29.817 13.582 31.309 13.582l-1.492-12.074h26.836l11.927 83c1.492 36.219-29.817 37.727-40.255 37.727zM1182.587 421.069c0-4.529-2.984-28.674-20.873-28.674-8.946 0-11.927 7.547-11.927 12.074 0 7.545 4.473 18.109 26.836 18.109 4.473-1.508 4.473-1.508 5.965-1.508z" />
<glyph unicode="&#xe92f;" horiz-adv-x="1885" d="M1240.732 368.244c8.946 49.801 10.435 90.547 31.309 83.002 2.981 19.617 7.454 27.162 10.435 34.709 0 0-1.489 0-5.962 0-13.419 0-23.855-18.111-23.855-18.111l2.981 16.6h-28.328l-19.382-117.709h32.801v1.508z" />
<glyph unicode="&#xe930;" horiz-adv-x="1885" d="M808.364 390.872c0-18.109 10.435-25.654 23.855-25.654 10.435 0 19.382 3.018 22.363 4.527l4.473 25.654c-1.492 0-4.473-1.508-7.454-1.508-10.438 0-11.927 6.037-10.435 9.055l8.944 52.817h16.4l4.473 28.672h-14.909l2.981 18.111z" />
<glyph unicode="&#xe931;" horiz-adv-x="1885" d="M879.933 418.036c0-42.254 13.417-52.817 37.271-52.817 22.365 0 31.309 4.527 31.309 4.527l5.965 28.672c0 0-16.4-7.545-31.309-7.545-32.801 0-26.836 24.145-26.836 24.145h61.126c0 0 4.473 19.619 4.473 27.164 0 19.619-10.435 43.764-43.236 43.764-31.309 3.018-38.763-30.182-38.763-67.91zM917.204 461.801c16.4 0 19.382-19.619 19.382-21.127h-38.763c0 1.508 2.981 21.127 19.382 21.127z" />
<glyph unicode="&#xe932;" glyph-name="human" d="M702.305 437.376c40.704 45.344 65.695 105.056 65.695 170.624 0 141.152-114.847 256-256 256s-256-114.848-256-256c0-141.152 114.848-256 256-256 49.76 0 96.097 14.495 135.458 39.168 139.196-52.446 235.036-179.837 247.228-327.168h-765.342c8.288 99.169 54.816 191.647 130.496 257.633 13.344 11.617 14.72 31.807 3.104 45.153-11.584 13.312-31.808 14.717-45.152 3.1-97.76-85.18-153.792-208.316-153.792-337.886 0-17.698 14.336-32 32-32h832c17.698 0 32 14.302 32 32 0 175.553-101.757 332.322-257.695 405.376zM320 608c0 105.888 86.112 192 192 192s192-86.112 192-192c0-105.888-86.113-192-192-192s-192 86.112-192 192z" />
<glyph unicode="&#xe933;" d="M85.743 41.906l-85.743 918.094 1024-1.845-90.663-916.249-417.47-105.906-430.123 105.906z" />
<glyph unicode="&#xe934;" d="M515.857 24.674v847.898l421.688-1.23-75.196-758.609-346.492-88.059z" />
<glyph unicode="&#xe935;" d="M470.705 771.881h-111.484v-564.341l-86.709 14.473v75.966l-103.226 14.473v-170.028l301.419-68.73v698.187zM554.335 771.881h308.629l-20.646-108.165h-170.164v-177.499h170.164l-20.646-358.261-267.337-54.262v112.143l180.629 54.262 10.43 148.319-191.059-24.235v407.698z" />
<glyph unicode="&#xe936;" horiz-adv-x="1885" d="M1106.546 369.755l5.962 33.201c0 0-14.909-7.547-25.344-7.547-20.873 0-29.819 16.6-29.819 34.709 0 36.219 17.892 55.838 38.763 55.838 14.911 0 26.838-9.055 26.838-9.055l4.473 31.69c0 0-17.892 7.545-34.292 7.545-34.29 0-53.672-30.18-53.672-87.526 0-37.727 2.981-63.381 38.763-63.381 11.927 0 28.328 4.527 28.328 4.527z" />
<glyph unicode="&#xe937;" glyph-name="close" d="M226.114 162.123c8.533-8.531 17.067-12.8 29.867-12.8s21.333 4.269 29.867 12.8l226.132 226.134 226.134-226.134c8.534-8.531 21.334-12.8 29.866-12.8 8.534 0 21.334 4.269 29.869 12.8 17.066 17.069 17.066 42.669 0 59.734l-226.134 226.134 226.134 226.133c17.066 17.067 17.066 42.667 0 59.733s-42.669 17.067-59.734 0l-226.134-226.135-226.132 226.135c-17.067 17.067-42.667 17.067-59.733 0s-17.067-42.667 0-59.733l226.134-226.133-226.134-226.134c-17.067-17.066-17.067-42.666 0-59.734z" />
<glyph unicode="&#xe938;" glyph-name="web" d="M520.982 403.241l-153.638-446.376c45.888-13.507 94.4-20.865 144.646-20.865 59.616 0 116.799 10.303 170.028 29.023-1.346 2.209-2.628 4.51-3.652 7.041l-157.384 431.177zM961.282 693.648c2.204-16.32 3.452-33.792 3.452-52.64 0-51.936-9.728-110.336-38.941-183.392l-156.394-452.135c152.235 88.737 254.601 253.669 254.601 442.534 0 89.026-22.752 172.705-62.718 245.633zM857.634 473.848c0 63.296-22.752 107.104-42.208 141.184-25.956 42.208-50.308 77.92-50.308 120.096 0 47.072 35.684 90.88 85.987 90.88 2.272 0 4.413-0.288 6.622-0.416-91.073 83.464-212.456 134.408-345.737 134.408-178.886 0-336.238-91.776-427.79-230.752 12.032-0.384 23.36-0.608 32.96-0.608 53.536 0 136.456 6.496 136.456 6.496 27.584 1.632 30.848-38.944 3.264-42.176 0 0-27.744-3.264-58.592-4.896l186.44-554.569 112.063 336.043-79.751 218.526c-27.584 1.632-53.728 4.896-53.728 4.896-27.584 1.632-24.352 43.808 3.264 42.176 0 0 84.544-6.496 134.857-6.496 53.536 0 136.455 6.496 136.455 6.496 27.614 1.632 30.847-38.944 3.262-42.176 0 0-27.775-3.264-58.592-4.896l185.032-550.346 51.107 170.628c22.070 70.846 38.936 121.695 38.936 165.502zM0 448.024c0-202.654 117.76-377.802 288.552-460.776l-244.232 669.135c-28.384-63.656-44.32-134.12-44.32-208.36z" />
<glyph unicode="&#xe939;" glyph-name="teamwork" d="M253.657-27.687c-8.096 0-15.041 6.113-15.872 14.336l-12.863 123.455h-73.857c-20.544 0-38.176 15.968-40.192 36.385l-9.344 96.063h-38.784c-11.552 0-21.12 4.897-26.24 13.472-5.12 8.544-4.928 19.329 0.544 29.506l55.904 123.838-2.016 35.713c-0.032 61.184 27.584 120.16 75.744 162.72 6.592 5.855 16.736 5.249 22.592-1.407 5.856-6.625 5.216-16.736-1.408-22.594-41.92-36.991-64.96-85.95-64.96-137.824l2.208-38.719c0.16-2.56-0.32-5.151-1.376-7.487l-56.544-125.121 48.864-0.096c8.256 0 15.136-6.24 15.936-14.432l10.752-110.496c0.384-3.934 4.352-7.487 8.32-7.487h88.256c8.192 0 15.071-6.177 15.903-14.336l14.369-137.824c0.928-8.767-5.472-16.671-14.24-17.568-0.575-0.063-1.153-0.096-1.696-0.096zM406.962-28.985c-8.063 0-15.008 6.081-15.872 14.303l-19.038 178.242h-87.136c-22.465 0-41.728 17.471-43.809 39.743l-10.975 112.511h-46.785c-12.448 0-22.688 5.216-28.16 14.305-5.44 9.12-5.184 20.64 0.672 31.615l64.608 143.073-2.337 41.791c-0.031 80.833 42.433 157.696 113.568 206.399 7.264 4.992 17.248 3.136 22.209-4.159 4.993-7.297 3.168-17.218-4.159-22.209-62.401-42.785-99.647-109.761-99.647-179.137l2.527-44.767c0.16-2.593-0.319-5.153-1.376-7.487l-66.495-147.169 59.903-0.256c8.258 0 15.137-6.24 15.938-14.432l12.384-127.007c0.543-5.792 6.111-10.815 11.936-10.815h101.503c8.192 0 15.041-6.144 15.905-14.305l20.576-192.575c0.928-8.767-5.409-16.673-14.209-17.601-0.575-0.031-1.151-0.063-1.729-0.063zM527.139 209.119h-82.754c-24.32 0-45.119 18.913-47.423 43.074l-12.544 129.055h-54.847c-13.312 0-24.257 5.536-30.015 15.2-5.761 9.632-5.472 21.889 0.864 33.632l73.216 162.337-2.656 47.806c-0.033 159.969 142.273 289.377 317.215 289.377 172.673 0 302.944-136.384 302.944-317.184 0-69.057-16.896-134.816-51.712-200.991-4.096-7.84-13.824-10.785-21.6-6.722-7.84 4.096-10.846 13.793-6.719 21.6 32.319 61.506 48.032 122.368 48.032 186.112 0 162.593-116.48 285.184-270.944 285.184-157.28 0-285.247-115.072-285.247-256.512l2.849-50.815c0.16-2.56-0.322-5.12-1.376-7.457l-75.327-166.943c-0.608-1.12-0.993-2.017-1.249-2.626 0.512-0.031 1.024-0.031 1.729-0.031h69.376c8.255 0 15.137-6.24 15.935-14.465l13.953-143.553c0.702-7.647 7.84-14.080 15.55-14.080h82.754c8.831 0 15.999-7.168 15.999-15.999 0-8.833-7.168-16.001-15.999-16.001zM716.737 386.333h-57.537c-7.52 0-14.017 5.247-15.616 12.607l-9.472 43.264c-13.279 3.873-26.049 9.183-38.207 15.872l-37.313-23.904c-6.337-4.063-14.625-3.168-19.935 2.144l-40.673 40.671c-5.31 5.313-6.207 13.634-2.144 19.937l23.904 37.31c-6.687 12.161-11.999 24.928-15.872 38.21l-43.264 9.472c-7.391 1.599-12.607 8.096-12.607 15.647v57.569c0 7.52 5.216 14.014 12.577 15.616l43.231 9.472c3.903 13.312 9.249 26.079 15.905 38.207l-23.904 37.312c-4.065 6.304-3.168 14.624 2.144 19.936l40.671 40.672c5.313 5.312 13.601 6.208 19.935 2.144l37.313-23.904c12.192 6.688 24.961 12 38.207 15.872l9.472 43.264c1.602 7.328 8.098 12.576 15.616 12.576h57.569c7.52 0 14.014-5.216 15.616-12.576l9.472-43.296c13.246-3.84 26.016-9.152 38.207-15.84l37.313 23.904c6.367 4.096 14.655 3.2 19.968-2.112l40.671-40.672c5.313-5.312 6.207-13.632 2.144-19.936l-23.871-37.377c6.687-12.192 11.999-24.959 15.839-38.175l43.297-9.472c7.328-1.602 12.575-8.096 12.575-15.616v-57.569c0-7.52-5.214-14.014-12.575-15.616l-43.297-9.472c-3.84-13.216-9.153-26.016-15.839-38.175l23.904-37.345c4.063-6.304 3.168-14.623-2.144-19.935l-40.673-40.704c-5.343-5.343-13.631-6.144-19.935-2.144l-37.313 23.937c-12.159-6.689-24.928-11.969-38.207-15.841l-9.472-43.295c-1.632-7.393-8.129-12.64-15.679-12.64zM672.063 418.333h31.81l8.798 40.255c1.313 6.015 5.984 10.785 11.969 12.192 16.769 3.903 32.672 10.529 47.329 19.616 5.183 3.232 11.87 3.232 17.056-0.127l34.72-22.241 22.495 22.497-22.239 34.72c-3.328 5.183-3.361 11.807-0.16 17.023 9.183 14.848 15.776 30.753 19.646 47.36 1.409 6.017 6.144 10.656 12.161 11.969l40.255 8.8v31.84l-40.225 8.831c-6.015 1.313-10.75 5.984-12.159 11.969-3.873 16.64-10.463 32.545-19.649 47.36-3.232 5.216-3.168 11.839 0.16 17.025l22.241 34.719-22.497 22.496-34.72-22.24c-5.183-3.36-11.807-3.36-17.056-0.128-14.719 9.12-30.624 15.712-47.327 19.616-6.017 1.408-10.656 6.144-11.969 12.16l-8.8 40.256h-31.807l-8.8-40.256c-1.313-6.016-5.984-10.752-11.999-12.16-16.673-3.872-32.578-10.464-47.329-19.616-5.216-3.232-11.839-3.232-17.056 0.128l-34.72 22.24-22.495-22.496 22.239-34.719c3.328-5.186 3.361-11.842 0.129-17.058-9.089-14.623-15.712-30.558-19.714-47.36-1.407-6.015-6.111-10.623-12.126-11.936l-40.225-8.831v-31.807l40.255-8.8c6.017-1.313 10.752-5.984 12.161-11.969 3.903-16.736 10.496-32.672 19.616-47.327 3.265-5.216 3.232-11.872-0.129-17.058l-22.239-34.72 22.495-22.495 34.72 22.239c5.216 3.328 11.905 3.328 17.058 0.129 14.686-9.12 30.591-15.745 47.327-19.616 6.015-1.409 10.689-6.144 11.999-12.192l8.8-40.288zM687.935 514.3c-61.759 0-111.999 50.239-111.999 112.001 0 61.759 50.239 111.999 111.999 111.999s112.001-50.239 112.001-111.999c0-61.762-50.242-112.001-112.001-112.001zM687.935 706.3c-44.128 0-79.999-35.873-79.999-79.999 0-44.128 35.871-80.001 79.999-80.001s80.001 35.873 80.001 80.001c0 44.126-35.873 79.999-80.001 79.999zM814.16 2.111h-47.487c-7.52 0-14.017 5.249-15.616 12.607l-7.424 34.081c-10.017 3.039-19.745 7.072-28.994 12.032l-29.44-18.815c-6.334-4.096-14.623-3.168-19.935 2.142l-33.599 33.602c-5.313 5.313-6.21 13.631-2.144 19.968l18.881 29.377c-4.993 9.279-9.026 19.007-12.065 28.991l-34.048 7.455c-7.328 1.602-12.607 8.098-12.607 15.616v47.489c0 7.52 5.247 14.017 12.607 15.616l34.048 7.457c3.039 10.015 7.072 19.71 12.065 28.991l-18.881 29.44c-4.065 6.304-3.168 14.623 2.144 19.935l33.567 33.569c5.313 5.313 13.601 6.24 19.937 2.144l29.44-18.817c9.247 4.96 18.975 9.023 28.991 12.065l7.424 34.015c1.599 7.328 8.096 12.607 15.616 12.607h47.487c7.49 0 14.017-5.214 15.616-12.575l7.457-34.048c10.017-3.041 19.712-7.072 29.024-12.065l29.377 18.817c6.334 4.030 14.592 3.168 19.935-2.144l33.569-33.569c5.31-5.313 6.207-13.601 2.144-19.935l-18.817-29.44c4.96-9.282 9.023-19.007 12.065-28.991l34.048-7.457c7.328-1.599 12.607-8.096 12.607-15.616v-47.456c0-7.52-5.249-14.017-12.607-15.616l-34.081-7.457c-3.009-10.015-7.039-19.679-12.032-28.991l18.817-29.407c4.063-6.304 3.166-14.625-2.144-19.937l-33.569-33.599c-5.343-5.343-13.728-6.144-19.935-2.144l-29.377 18.848c-9.312-4.958-19.007-8.991-29.024-12.032l-7.457-34.111c-1.536-7.424-8.030-12.64-15.583-12.64zM779.567 34.111h21.729l6.816 31.072c1.313 6.017 6.015 10.752 11.999 12.161 13.441 3.135 26.272 8.448 38.21 15.806 5.183 3.265 11.839 3.232 17.023-0.127l26.72-17.121 15.36 15.36-17.119 26.753c-3.328 5.183-3.361 11.809-0.129 17.056 7.391 11.936 12.704 24.769 15.809 38.144 1.407 6.017 6.111 10.719 12.192 12.032l31.039 6.785v21.76l-30.976 6.783c-6.015 1.313-10.752 5.984-12.159 11.969-3.201 13.472-8.544 26.305-15.905 38.207-3.265 5.249-3.232 11.872 0.129 17.056l17.119 26.784-15.36 15.36-26.72-17.119c-5.183-3.328-11.839-3.328-17.023-0.129-11.969 7.393-24.832 12.737-38.24 15.905-6.017 1.409-10.656 6.113-11.969 12.128l-6.816 30.976h-21.76l-6.752-30.913c-1.313-6.015-5.984-10.752-11.969-12.159-13.505-3.201-26.335-8.544-38.207-15.905-5.153-3.232-11.839-3.232-17.056 0.129l-26.784 17.119-15.36-15.36 17.183-26.784c3.328-5.183 3.361-11.809 0.129-17.056-7.361-11.905-12.704-24.736-15.905-38.21-1.407-6.015-6.111-10.656-12.159-11.966l-30.976-6.785v-21.76l30.976-6.783c6.015-1.313 10.752-5.984 12.159-11.969 3.201-13.472 8.544-26.305 15.905-38.207 3.265-5.249 3.232-11.872-0.129-17.089l-17.152-26.753 15.329-15.327 26.784 17.121c5.216 3.328 11.903 3.328 17.056 0.127 11.809-7.328 24.672-12.673 38.177-15.809 6.015-1.407 10.686-6.144 11.999-12.192l6.783-31.072zM790.415 107.713c-52.511 0-95.199 42.689-95.199 95.199 0 52.513 42.689 95.201 95.199 95.201 52.513 0 95.201-42.689 95.201-95.201 0-52.511-42.689-95.199-95.201-95.199zM790.415 266.080c-34.847 0-63.199-28.353-63.199-63.199 0-34.849 28.353-63.201 63.199-63.201 34.849 0 63.201 28.353 63.201 63.201 0 34.847-28.353 63.199-63.201 63.199z" />
<glyph unicode="&#xe93a;" glyph-name="telegram" d="M969.377 763.536l-138.834-654.739c-10.476-46.211-37.791-57.71-76.608-35.945l-211.535 155.884-102.070-98.171c-11.292-11.295-20.741-20.744-42.511-20.744l15.196 215.442 392.061 354.276c17.047 15.196-3.697 23.616-26.493 8.42l-484.685-305.188-208.661 65.308c-45.388 14.172-46.208 45.389 9.446 67.156l816.163 314.43c37.786 14.17 70.853-8.418 58.532-66.13z" />
<glyph unicode="&#xe93b;" d="M849.815 818.417c-22.815 21.018-115.164 88.036-321.062 88.932 0 0-242.724 14.552-360.945-93.966-65.758-65.754-88.934-162.237-91.45-281.712-2.516-119.48-5.57-343.337 210.209-404.068h0.177l-0.177-92.705c0 0-1.436-37.55 23.355-45.097 29.827-9.344 47.432 19.223 75.999 49.946 15.631 16.888 37.189 41.682 53.54 60.552 147.684-12.401 261.056 15.987 273.989 20.116 29.827 9.702 198.531 31.265 225.838 255.127 28.388 231.050-13.652 376.937-89.472 442.875z" />
<glyph unicode="&#xe93c;" d="M874.796 392.433c-23.178-186.847-159.903-198.705-185.055-206.792-10.78-3.412-110.495-28.209-235.72-20.124 0 0-93.427-112.648-122.532-141.937-9.523-9.518-19.942-8.622-19.763 10.245 0 12.393 0.719 153.969 0.719 153.969-0.182 0-0.182 0 0 0-182.901 50.67-172.121 241.293-170.145 341.007 1.976 99.712 20.842 181.46 76.538 236.436 100.074 90.732 306.151 77.256 306.151 77.256 174.093-0.718 257.459-53.178 276.864-70.786 64.136-54.978 96.84-186.494 72.942-379.274z" />
<glyph unicode="&#xe93d;" d="M625.062 537.595c0.719-15.45-22.456-16.53-23.176-1.075-1.979 39.526-20.485 58.747-58.573 60.905-15.452 0.899-14.013 24.074 1.257 23.176 50.13-2.696 77.978-31.442 80.492-83.005z" />
<glyph unicode="&#xe93e;" d="M661.54 517.302c1.795 76.178-45.814 135.826-136.187 142.472-15.273 1.078-13.655 24.256 1.618 23.178 104.207-7.549 159.721-79.235 157.745-166.19-0.179-15.45-23.537-14.735-23.176 0.54z" />
<glyph unicode="&#xe93f;" d="M745.969 493.22c0.177-15.452-23.178-15.629-23.178-0.179-1.078 146.427-98.634 226.198-217.037 227.096-15.27 0.18-15.27 23.176 0 23.176 132.413-0.898 238.956-92.345 240.215-250.093z" />
<glyph unicode="&#xe940;" d="M725.665 316.969v-0.361c-19.405-34.138-55.695-71.869-93.066-59.83l-0.361 0.54c-37.908 10.598-127.199 56.594-183.616 101.512-29.105 22.996-55.698 50.125-76.18 76.178-18.504 23.178-37.187 50.668-55.332 83.722-38.269 69.174-46.712 100.076-46.712 100.076-12.040 37.371 25.51 73.664 59.825 93.066h0.364c16.527 8.626 32.338 5.75 42.936-7.004 0 0 22.28-26.588 31.8-39.708 8.986-12.216 21.023-31.798 27.31-42.757 10.959-19.584 4.129-39.526-6.648-47.79l-21.56-17.249c-10.957-8.801-9.521-25.152-9.521-25.152s31.98-120.916 151.457-151.46c0 0 16.353-1.439 25.152 9.523l17.249 21.558c8.264 10.78 28.209 17.608 47.79 6.648 26.414-14.912 60.009-38.090 82.289-59.11 12.575-10.24 15.45-25.874 6.825-42.401z" />
<glyph unicode="&#xe941;" d="M752.001 895.999h-384c-2.099 0.025-4.179-0.389-6.108-1.215s-3.663-2.048-5.092-3.585l-160-160c-1.537-1.429-2.758-3.163-3.585-5.092s-1.241-4.009-1.215-6.108v-640c0-21.216 8.428-41.565 23.432-56.569s35.351-23.43 56.569-23.43h480c21.216 0 41.565 8.426 56.569 23.43s23.43 35.352 23.43 56.569v736c0 21.217-8.426 41.566-23.43 56.569s-35.352 23.432-56.569 23.432z" />
<glyph unicode="&#xe942;" d="M374.071 895.992c-2.884 1.307-6.107 1.671-9.21 1.039s-5.927-2.227-8.070-4.558l-160-160c-2.834-2.052-4.864-5.028-5.74-8.416s-0.544-6.975 0.94-10.144c1.276-3.132 3.512-5.78 6.387-7.562s6.24-2.608 9.613-2.358h96c10.506 0 20.909 2.069 30.615 6.090s18.525 9.913 25.954 17.342c7.429 7.429 13.322 16.248 17.342 25.954s6.089 20.109 6.089 30.615v96c0.25 3.373-0.575 6.738-2.358 9.613s-4.43 5.11-7.562 6.386z" />
<glyph unicode="&#xe943;" d="M368 608h-64c-4.244 0-8.313-1.686-11.314-4.687s-4.687-7.070-4.687-11.314v-287.999c0-4.242 1.686-8.314 4.687-11.313 3-3.004 7.070-4.686 11.314-4.686s8.313 1.682 11.313 4.686c3.001 2.999 4.687 7.070 4.687 11.313v112.001h48c12.73 0 24.939 5.057 33.941 14.058s14.059 21.211 14.059 33.938v96.001c0 12.73-5.057 24.939-14.059 33.941s-21.21 14.059-33.941 14.059zM384 463.999c0-4.242-1.686-8.314-4.687-11.313s-7.070-4.686-11.313-4.686h-48v128h48c4.243 0 8.313-1.686 11.313-4.687s4.687-7.070 4.687-11.313v-96.001z" />
<glyph unicode="&#xe944;" d="M688.001 608h-64c-4.242 0-8.314-1.686-11.313-4.687-3.004-3-4.686-7.070-4.686-11.314v-287.999c0-4.242 1.682-8.314 4.686-11.313 2.999-3.004 7.070-4.686 11.313-4.686s8.314 1.682 11.313 4.686c2.999 2.999 4.686 7.070 4.686 11.313v112.001h48.001c12.727 0 24.937 5.057 33.938 14.058s14.063 21.211 14.063 33.938v96.001c0 12.73-5.061 24.939-14.063 33.941s-21.211 14.059-33.938 14.059zM704 463.999c0-4.242-1.687-8.314-4.686-11.313s-7.070-4.686-11.313-4.686h-48.001v128h48.001c4.242 0 8.314-1.686 11.313-4.687s4.686-7.070 4.686-11.313v-96.001z" />
<glyph unicode="&#xe945;" d="M560.001 608c-4.242 0-8.314-1.686-11.313-4.687-3.004-3-4.691-7.070-4.691-11.314v-128.001h-63.998v128.001c0 4.244-1.686 8.313-4.687 11.314s-7.070 4.687-11.314 4.687c-4.243 0-8.313-1.686-11.313-4.687s-4.687-7.070-4.687-11.314v-287.999c0-4.242 1.686-8.314 4.687-11.313 3-3.004 7.070-4.686 11.313-4.686s8.313 1.682 11.314 4.686c3.001 2.999 4.687 7.070 4.687 11.313v128h63.998v-128c0-4.242 1.687-8.314 4.691-11.313 2.999-3.004 7.070-4.686 11.313-4.686s8.314 1.682 11.313 4.686c2.999 2.999 4.686 7.070 4.686 11.313v287.999c0 4.244-1.687 8.313-4.686 11.314s-7.070 4.687-11.313 4.687z" />
<glyph unicode="&#xe946;" d="M640 704h-256v-512h256v512z" />
<glyph unicode="&#xe947;" d="M618.667 896h-362.667c-35.349 0-64-28.651-64-64v-618.667l106.667-21.333 106.667 21.333v469.333h213.333l21.333 106.667-21.333 106.667z" />
<glyph unicode="&#xe948;" d="M618.667 0h-213.333l-21.333 106.667 21.333 106.667h213.333l21.333-106.667-21.333-106.667z" />
<glyph unicode="&#xe949;" d="M405.333 213.333v-213.333h-149.333c-35.349 0-64 28.652-64 64v149.333h213.333z" />
<glyph unicode="&#xe94a;" d="M832 213.333l-106.667-21.333-106.667 21.333v469.333l106.667 21.333 106.667-21.333v-469.333z" />
<glyph unicode="&#xe94b;" d="M618.667 213.333h213.333v-149.333c0-35.348-28.652-64-64-64h-149.333v213.333z" />
<glyph unicode="&#xe94c;" d="M832 682.667h-213.333v213.333l213.333-213.333z" />
<glyph unicode="&#xe94d;" glyph-name="handshake" d="M999.477 244.437l-111.708 153.133c-8.999 12.413-26.376 15.671-39.254 7.293l-59.734-38.633c-4.033-2.947-6.826-7.291-7.602-12.255-0.621-3.879 0.311-7.604 1.862-11.016l-5.585-1.862v371.743c0 10.084-1.241 20.015-3.723 30.099-0.156 0.309-0.311 0.776-0.311 1.085-6.361 24.514-19.704 46.235-38.787 62.681l-124.432 108.451c-18.151 15.205-40.339 24.979-64.076 28.082-0.311 0-0.776 0-1.087 0.155-4.653 0.621-9.619 1.086-15.049 1.086h-386.173c-68.887 0-124.897-56.010-124.897-124.897v-735.263c0-68.887 56.010-124.897 124.897-124.897h505.329c6.826-5.12 15.204-7.913 23.583-7.913 11.946 0 23.271 5.431 30.72 14.739 6.67 8.378 9.464 18.774 8.532 28.705 14.739-3.879 31.031 1.55 40.651 13.496 6.67 8.378 9.464 18.465 8.534 28.393 14.893-4.188 31.494 1.085 41.269 13.343 10.24 12.722 11.172 29.944 4.035 43.442 10.084 1.241 19.239 6.361 25.754 14.43 7.449 9.308 9.775 20.789 7.913 31.65 1.241-0.154 2.482-0.309 3.723-0.309 6.982 0 13.963 2.017 20.015 6.050l41.581 27.773 3.103-4.188c2.949-4.035 7.293-6.828 12.413-7.604 0.93-0.154 2.017-0.154 2.947-0.154 4.035 0 7.758 1.241 10.861 3.412l57.407 38.322c6.67 4.499 11.014 11.172 12.411 19.085 1.397 7.911-0.465 15.825-5.12 22.342zM724.703 795.379c14.586-12.567 24.979-28.703 31.343-46.7h-173.771c-16.292 0-29.479 13.187-29.479 29.479v148.48c17.687-3.724 34.134-11.326 47.786-22.807l124.121-108.451zM34.125 84.32v735.263c0 60.509 49.183 109.692 109.692 109.692h386.173c2.791 0 5.12-0.31 7.602-0.465v-150.652c0-24.67 20.015-44.683 44.683-44.683h177.959c1.397-6.984 2.173-13.81 2.173-20.791v-366.313l-65.939 26.067c-20.171 8.067-43.133 5.894-61.44-5.741l-38.013-24.050c-0.156 0.156-0.465 0.311-0.621 0.311l-35.375 11.17 3.103 4.19c2.949 4.033 4.19 8.999 3.414 14.119s-3.568 9.308-7.913 12.411l-59.423 38.478c-12.878 8.378-30.099 5.12-39.252-7.291l-111.71-153.135c-4.655-6.361-6.517-14.275-5.12-22.186 1.397-7.913 5.741-14.586 12.413-19.085l57.096-38.167c3.256-2.482 7.135-3.723 11.17-3.723 0.932 0 2.017 0 2.949 0.309 3.256 0.467 5.894 2.017 8.376 3.879 6.828-6.982 11.172-15.825 12.569-25.444l-11.792-15.204c-5.896-7.602-8.378-16.912-7.291-26.532 1.241-9.464 6.050-17.998 13.652-23.738 6.517-5.12 14.275-7.447 21.877-7.447 1.085 0 2.017 0.309 2.947 0.309-0.774-3.877-1.085-7.911-0.621-11.946 1.241-9.464 6.052-17.998 13.654-23.738 6.517-5.12 14.275-7.447 21.877-7.447 3.103 0 6.205 0.465 9.308 1.397 0-10.707 4.655-21.256 13.654-28.393 6.517-5.12 14.275-7.447 21.877-7.447 3.103 0 6.205 0.465 9.155 1.395 0-10.705 4.653-21.101 13.652-28.236 4.344-3.414 9.31-5.587 14.584-6.672h-441.405c-60.509-0.156-109.692 49.027-109.692 109.537zM427.745 196.649c-0.776-1.085-1.864-1.395-2.329-1.395-0.621 0-1.706-0.156-2.947 0.93l-57.407 38.322c-3.103 2.173-5.274 5.431-5.894 9.155s0.154 7.447 2.482 10.549l111.708 153.135c2.638 3.723 6.982 5.741 11.172 5.741 2.638 0 5.276-0.776 7.602-2.171l59.113-38.169c1.085-0.776 1.395-1.862 1.395-2.327 0.156-0.621 0.156-1.706-0.621-2.793l-124.275-170.977zM529.213 146.070c4.035 5.276 10.24 8.069 16.29 8.069 4.499 0 8.845-1.397 12.724-4.344 4.344-3.414 7.135-8.225 7.911-13.81 0.621-5.429-0.776-10.861-4.188-15.204l-42.512-54.77c-6.982-8.997-20.013-10.705-29.012-3.568-4.346 3.414-7.137 8.223-7.913 13.808-0.621 5.431 0.776 10.863 4.188 15.36l5.431 6.984c0.465 0.465 0.93 0.93 1.397 1.395l23.892 30.72c0.467 0.621 0.776 1.397 1.241 2.017l10.551 13.343zM619.201-14.356l12.569-11.016h-32.117c7.602 1.552 14.428 5.276 19.548 11.016zM613.151 2.089c-0.156-0.154-0.465-0.309-0.621-0.465-0.311-0.465-0.467-0.93-0.776-1.397l-2.482-3.258c-3.414-4.344-8.223-7.135-13.81-7.911-5.429-0.776-10.861 0.774-15.204 4.188-8.999 6.982-10.549 19.859-3.723 28.858l28.082 36.151c4.035 5.12 10.084 7.756 16.136 7.756 4.499 0 8.843-1.395 12.722-4.344 8.999-6.982 10.705-20.013 3.723-29.012l-24.048-30.566zM599.341 76.407l-6.826-8.843c0-0.156-0.156-0.156-0.156-0.156l-27.771-35.84c-0.156-0.154-0.156-0.154-0.156-0.309-6.982-8.999-20.015-10.705-29.014-3.723s-10.705 20.013-3.723 29.012l35.064 45.15c4.035 5.274 10.24 8.067 16.292 8.067 4.499 0 8.843-1.397 12.722-4.344 8.999-6.826 10.549-19.859 3.568-29.014zM505.94 140.64l-25.289-32.582c-7.137-8.223-19.395-9.619-28.082-2.793-4.346 3.414-7.137 8.223-7.913 13.81-0.621 5.429 0.776 10.861 4.19 15.36l23.892 30.72c4.035 5.274 10.24 8.067 16.292 8.067 4.499 0 8.843-1.397 12.722-4.344 4.344-3.414 7.137-8.223 7.911-13.81 0.467-5.274-0.93-10.24-3.723-14.428zM691.812-24.285c-7.913-9.931-23.429-11.327-33.047-4.346-0.932 1.241-2.017 2.173-3.414 2.793l-26.532 23.273 20.171 25.909c2.791 3.57 4.655 7.602 5.896 11.637l34.132-25.911c9.619-8.376 11.016-23.116 2.793-33.356zM820.589 117.522c-7.602-9.464-22.032-11.792-32.272-5.12l-72.145 54.768c-3.414 2.484-8.069 1.864-10.551-1.395s-1.862-8.069 1.397-10.551l72.456-54.923 7.758-6.361c10.396-8.378 12.102-23.738 3.723-34.134-8.067-10.084-24.048-11.79-34.134-3.723l-6.050 4.964-0.156 0.156-0.932 0.776-2.171 1.862c-0.156 0.156-0.311 0.309-0.465 0.309-0.156 0.156-0.467 0.156-0.621 0.311l-68.268 51.665c-3.412 2.482-8.067 1.862-10.549-1.397s-1.862-8.067 1.397-10.549l69.351-52.597c9.464-8.534 10.705-23.118 2.638-33.202s-24.048-11.792-34.134-3.879l-8.688 6.672c-0.156 0.154-0.311 0.309-0.621 0.465-0.156 0.156-0.311 0.156-0.465 0.156l-42.047 31.805c-1.862 7.602-6.050 14.739-12.722 20.015-7.291 5.741-16.136 7.911-24.668 7.291 0.93 4.035 1.241 8.378 0.776 12.569-1.243 9.464-6.052 17.996-13.654 23.892-7.293 5.741-16.136 7.913-24.67 7.293 1.087 4.188 1.397 8.688 0.776 13.031-1.241 9.466-6.050 17.998-13.652 23.894-13.189 10.24-31.341 9.775-44.065-0.156-2.015 7.604-6.205 14.275-12.567 19.085-15.516 12.102-38.167 9.308-50.268-6.361l-0.467-0.621c-3.103 8.376-7.911 15.981-14.428 22.186l105.814 145.531 28.856-9.153-45.613-28.858c-6.207-4.035-10.551-10.396-11.948-17.689-1.241-7.291 0.467-14.893 4.966-20.789 11.946-15.671 30.099-24.67 49.803-24.67 11.325 0 22.497 3.105 32.27 8.999l50.579 30.411 159.031-130.947c8.223-8.534 8.843-21.723 1.397-31.031zM855.652 158.171c-7.758-5.12-17.689-4.653-24.824 1.243l-1.552 1.395c-0.93 0.932-1.706 1.862-2.793 2.793-0.465 0.311-0.93 0.465-1.395 0.776l-158.72 130.638c-1.397 1.085-3.105 1.706-4.811 1.706-1.397 0-2.638-0.311-3.879-1.085l-55.079-33.202c-7.447-4.499-15.825-6.828-24.513-6.828-14.895 0-28.705 6.828-37.857 18.618-2.017 2.638-2.793 5.741-2.173 8.999s2.327 5.896 5.12 7.602l100.229 63.302c14.273 8.999 32.115 10.707 47.786 4.499l82.85-32.737c1.708-0.621 3.57-0.621 5.12-0.154l12.569 4.188 104.882-144.445-40.96-27.308zM983.652 215.734l-57.717-38.478c-1.085-0.776-2.173-0.776-2.638-0.621-0.621 0.154-1.55 0.465-2.327 1.395l-124.121 170.824c-0.776 1.085-0.776 2.171-0.621 2.791s0.465 1.552 1.085 2.173l59.423 38.478c2.329 1.55 4.964 2.171 7.602 2.171 4.344 0 8.534-2.017 11.172-5.741l111.708-153.133c2.173-3.105 3.103-6.828 2.482-10.551-0.774-4.035-2.791-7.137-6.050-9.308zM113.557 699.023h336.368c18.033 0 32.737 14.705 32.737 32.737v88.878c0.17 18.089-14.588 32.761-32.737 32.761h-336.368c-18.032 0-32.737-14.704-32.737-32.737v-88.902c0-18.033 14.704-32.737 32.737-32.737zM106.11 820.663c0 4.154 3.293 7.447 7.447 7.447h336.368c4.155 0 7.449-3.293 7.449-7.447v-88.902c0-4.153-3.293-7.447-7.449-7.447h-336.368c-4.154 0-7.447 3.293-7.447 7.447v88.902zM89.982 616.634h583.525c7.016 0 12.722 5.706 12.722 12.724 0 7.016-5.706 12.722-12.722 12.722h-583.525c-7.017 0-12.722-5.706-12.722-12.722 0-7.018 5.706-12.724 12.722-12.724zM89.982 538.456h583.525c7.016 0 12.722 5.704 12.722 12.722 0 7.016-5.706 12.722-12.722 12.722h-583.525c-7.017 0-12.722-5.706-12.722-12.722s5.706-12.722 12.722-12.722zM77.26 472.818h-0.003l0.007-0.19c0.248-6.695 5.536-12.532 12.719-12.532h583.525c7.016 0 12.722 5.706 12.722 12.722s-5.706 12.722-12.722 12.722h-583.525c-7.017 0-12.722-5.706-12.722-12.722zM673.499 407.2h-79.436c-7.018 0-12.724-5.706-12.724-12.722s5.706-12.722 12.724-12.722h79.436c7.018 0 12.724 5.706 12.724 12.722 0 7.24-5.775 12.722-12.724 12.722zM77.26 394.617h-0.003l0.007-0.188c0.248-6.695 5.536-12.534 12.719-12.534h261.121c7.016 0 12.722 5.706 12.722 12.722 0 7.018-5.706 12.722-12.722 12.722h-261.121c-7.017 0-12.722-5.704-12.722-12.722zM332.485 329.001h-242.502c-7.017 0-12.722-5.706-12.722-12.724 0-7.016 5.706-12.722 12.722-12.722h242.347c6.986 0 12.671 5.655 12.722 12.628 0.211 7.156-5.62 12.818-12.567 12.818zM201.226 260.579c-68.302 0-123.966-55.665-123.966-123.965s55.664-123.965 123.966-123.965c68.453 0 124.121 55.658 124.121 123.965s-55.669 123.965-124.121 123.965zM201.226 38.093c-54.268 0-98.521 44.253-98.521 98.521s44.253 98.521 98.521 98.521c54.428 0 98.677-44.257 98.677-98.521s-44.249-98.521-98.677-98.521zM254.38 167.119v0c7.313-1.044 13.439-6.074 15.77-13.070l0.014-0.043c2.306-7.129 0.399-14.715-4.819-19.935l-0.043-0.043-18.061-17.639 4.481-24.222c1.255-7.334-1.688-14.717-7.784-19.13-6.011-4.352-13.853-5.061-20.472-1.454l-22.367 11.743-21.797-11.809c-2.714-1.358-5.67-2.247-8.961-2.247-3.994 0-7.993 1.251-11.368 3.756-6.148 4.286-9.034 11.688-7.803 18.948l3.92 24.92-18.003 17.021c-5.22 5.22-7.126 12.806-4.82 19.937 2.316 7.158 8.44 12.214 15.777 13.265h-0.005l0.012 0.002h106.33zM254.38 167.119l-0.057 0.008M254.38 167.119l-0.057 0.008M254.323 167.127l-24.439 3.211-11.184 22.647c-0.002 0.006-0.006 0.012-0.008 0.018-3.453 7.107-10.717 10.316-17.418 10.316-6.709 0-13.982-3.211-17.515-10.277h-0.001M254.323 167.127l-70.565 25.915M183.757 193.042l-0.039-0.082M183.757 193.042l-0.039-0.082M183.718 192.961v0zM201.307 171.397l7.254-14.696c2.779-5.751 8.305-9.751 14.807-10.59v-0.002l16.448-1.589-12.362-11.983c-4.655-4.454-6.781-11.026-5.503-17.416h-0.002l0.023-0.1 3.518-15.925-15.090 7.922c-5.668 2.939-12.39 2.939-18.057 0l-0.003 0.006-14.353-8.403 2.835 16.818c1.048 6.287-1.035 12.812-5.704 17.269l0.002 0.002-12.208 10.811 16.826 2.443c6.373 0.86 11.881 4.901 14.632 10.807l6.938 14.627z" />
<glyph unicode="&#xe94e;" d="M369.794 21.343c78.507 0 142.221 63.712 142.221 142.219v142.224h-142.221c-78.507 0-142.222-63.717-142.222-142.224s63.716-142.219 142.222-142.219z" />
<glyph unicode="&#xe94f;" d="M227.571 447.99c0 78.509 63.716 142.224 142.222 142.224h142.221v-284.443h-142.221c-78.507 0-142.222 63.712-142.222 142.219z" />
<glyph unicode="&#xe950;" d="M227.571 732.444c0 78.507 63.716 142.222 142.222 142.222h142.221v-284.444h-142.221c-78.507 0-142.222 63.715-142.222 142.222z" />
<glyph unicode="&#xe951;" d="M512 874.667h142.224c78.507 0 142.219-63.716 142.219-142.222s-63.712-142.222-142.219-142.222h-142.224v284.444z" />
<glyph unicode="&#xe952;" d="M796.443 447.99c0-78.507-63.712-142.219-142.219-142.219s-142.224 63.712-142.224 142.219c0 78.509 63.717 142.224 142.224 142.224s142.219-63.715 142.219-142.224z" />
<glyph unicode="&#xe953;" glyph-name="GitHub" horiz-adv-x="926" d="M648.519-64h-272.93c0 0 0.375 80.964 0 136.533-186.812-40.209-238.933 102.4-238.933 102.4-34.133 68.267-68.267 102.4-68.267 102.4-68.267 40.55 0 34.133 0 34.133 68.267 0 102.4-68.267 102.4-68.267 59.904-101.751 166.502-85.367 204.8-68.267 0 34.133 14.95 85.743 34.133 102.4-149.094 16.794-273.203 102.4-273.203 273.067s34.27 204.8 68.403 238.933c-6.895 16.828-35.465 79.019 1.058 170.667 0 0 67.072 0 135.339-102.4 33.826 33.826 136.533 34.133 170.701 34.133 34.099 0 136.806-0.307 170.633-34.133 68.267 102.4 135.475 102.4 135.475 102.4 36.523-91.648 7.953-153.839 1.058-170.667 34.133-34.133 68.267-68.267 68.267-238.933s-123.972-256.273-273.067-273.067c19.183-16.657 34.133-75.435 34.133-102.4v-238.933z" />
<glyph unicode="&#xe954;" glyph-name="email" d="M960 810.667h-896c-16.974 0-33.253-6.743-45.255-18.745s-18.745-28.281-18.745-45.255v-597.333c0-16.976 6.743-33.252 18.745-45.255s28.281-18.745 45.255-18.745h896c16.976 0 33.252 6.741 45.255 18.745s18.745 28.279 18.745 45.255v597.333c0 16.974-6.741 33.253-18.745 45.255s-28.279 18.745-45.255 18.745zM946.347 768l-434.347-335.787-434.347 335.787h868.693zM42.667 158.077v583.043l328.747-254.080-328.747-328.963zM72.747 128l332.587 332.587 93.44-72.32c3.73-2.873 8.306-4.426 13.013-4.426s9.283 1.553 13.013 4.426l93.867 72.32 332.59-332.587h-878.51zM981.333 158.077l-328.744 328.963 328.744 254.080v-583.043z" />
<glyph unicode="&#xe955;" horiz-adv-x="1885" d="M650.331 455.773c0 0 13.419 6.037 32.801 6.037 10.438 0 19.382-1.51 19.382-10.563 0-6.037-1.489-7.547-1.489-7.547s-8.946 0-13.419 0c-25.346 0-53.672-10.563-53.672-45.272 0-27.164 17.89-33.199 28.325-33.199 20.873 0 29.819 13.582 31.311 13.582l-1.492-12.074h26.836l11.927 83c0 34.709-29.817 36.219-41.744 36.219zM711.459 421.064c0-4.529-17.89-28.674-35.782-28.674-8.946 0-11.927 7.547-11.927 12.074 0 7.545 4.473 18.109 26.836 18.109 4.473-1.508 20.873-1.508 20.873-1.508z" />
<glyph unicode="&#xe956;" horiz-adv-x="1885" d="M726.363 369.75c0 0 8.946-3.018 34.292-3.018 7.454 0 44.726-1.508 44.726 39.235 0 37.727-35.782 30.182-35.782 45.275 0 7.545 5.965 10.563 16.4 10.563 4.473 0 20.873-1.51 20.873-1.51l4.473 27.164c0 0-10.435 3.018-28.328 3.018-22.363 0-29.817-9.055-29.817-39.235 0-34.709 22.363-31.693 22.363-45.275 0-9.053-10.435-10.563-17.89-10.563z" />
<glyph unicode="&#xe957;" horiz-adv-x="1885" d="M1348.082 472.378c0 0-11.927 15.090-28.328 15.090-26.838 0-35.782-33.201-35.782-72.436 0-24.145-2.984-49.799 22.363-49.799 17.892 0 28.328 12.072 28.328 12.072l-1.492-10.563h29.819l22.363 144.873zM1346.59 433.14c0-16.6-13.419-37.727-29.819-37.727-10.435 0-16.398 9.055-16.398 24.145 0 24.145 10.435 39.238 23.852 39.238 10.438 0 22.365-7.547 22.365-25.656z" />
<glyph unicode="&#xe958;" horiz-adv-x="1885" d="M528.077 368.242l17.892 108.653 2.981-108.653h20.873l38.763 108.653-16.4-108.653h31.309l23.855 144.873h-37.271l-41.747-89.037-1.492 89.037h-16.398l-50.693-144.873h28.328z" />
<glyph unicode="&#xe959;" horiz-adv-x="1885" d="M958.955 368.244h31.309c8.946 49.801 10.435 90.547 31.309 83.002 2.981 19.617 7.454 27.162 10.435 34.709 0 0-1.489 0-5.962 0-13.419 0-23.855-18.111-23.855-18.111l2.981 16.6z" />
<glyph unicode="&#xe95a;" horiz-adv-x="1885" d="M1134.878 455.773c0 0 13.417 6.037 32.798 6.037 10.438 0 19.382-1.51 19.382-10.563 0-6.037-1.489-7.547-1.489-7.547s-8.946 0-13.419 0c-25.344 0-53.672-10.563-53.672-45.272 0-27.164 17.89-33.199 28.328-33.199 20.871 0 29.817 13.582 31.309 13.582l-1.492-12.074h26.836l11.927 83c0 34.709-29.817 36.219-41.744 36.219zM1196.004 421.064c0-4.529-17.89-28.674-35.782-28.674-8.946 0-11.927 7.547-11.927 12.074 0 7.545 4.473 18.109 26.836 18.109 5.965-1.508 20.873-1.508 20.873-1.508z" />
<glyph unicode="&#xe95b;" horiz-adv-x="1885" d="M1209.432 368.244h31.309c8.946 49.801 10.435 90.547 31.309 83.002 2.981 19.617 7.454 27.162 10.435 34.709 0 0-1.489 0-5.962 0-13.419 0-23.855-18.111-23.855-18.111l2.981 16.6z" />
</font>
</defs>
</svg>
